<svg width="1507" height="2827" viewBox="0 0 1507 2827" fill="none" xmlns="http://www.w3.org/2000/svg">
<rect x="1" width="1506" height="2747" fill="url(#paint0_radial_31_201)"/>
<mask id="mask0_31_201" style="mask-type:alpha" maskUnits="userSpaceOnUse" x="0" y="23" width="1506" height="2804">
<rect y="23" width="1506" height="2804" fill="url(#paint1_radial_31_201)"/>
</mask>
<g mask="url(#mask0_31_201)">
<g opacity="0.2">
<g filter="url(#filter0_f_31_201)">
<path d="M1264.62 177.729C1506.64 370.963 1601.2 837.626 1475.82 1220.05C1350.45 1602.47 1301.25 1168.73 1059.23 975.496C817.219 782.262 176.751 1488.97 302.122 1106.54C341.229 987.252 503.119 731.707 688.785 514.731C897.61 270.689 1136.51 75.4393 1264.62 177.729Z" fill="url(#paint2_radial_31_201)"/>
<path d="M302.513 1106.85C322.045 1047.27 372.266 953.606 440.833 847.689C509.393 741.783 596.272 623.667 689.094 515.192C793.498 393.182 905.406 283.385 1007.21 216.877C1058.12 183.623 1106.48 161.202 1150.1 153.477C1193.73 145.753 1232.57 152.735 1264.47 178.204C1506.18 371.195 1600.76 837.454 1475.43 1219.74C1459.77 1267.53 1445.3 1302.54 1431.5 1326.87C1417.7 1351.19 1404.6 1364.79 1391.69 1369.8C1378.79 1374.8 1366.04 1371.26 1352.88 1361.2C1339.69 1351.12 1326.09 1334.49 1311.55 1313.31C1297.01 1292.13 1281.55 1266.46 1264.65 1238.33C1247.74 1210.2 1229.39 1179.63 1209.08 1148.68C1168.46 1086.79 1119.96 1023.39 1059.39 975.022C1029.03 950.783 992.461 940.68 951.989 940.764C911.513 940.848 867.098 951.12 821.023 967.678C728.875 1000.79 630.022 1059.08 542.677 1111.44C499 1137.62 458.203 1162.32 422.55 1181.65C386.891 1200.99 356.407 1214.95 333.355 1219.67C321.825 1222.03 312.196 1222.06 304.728 1219.35C297.285 1216.65 292.022 1211.23 289.109 1202.64C286.176 1193.99 285.588 1182.02 287.72 1166.18C289.783 1150.84 294.383 1131.96 301.788 1109.08L302.513 1106.85Z" stroke="#1C2D43"/>
</g>
<g filter="url(#filter1_f_31_201)">
<path d="M-69.5863 1905.62C-237.606 1572.1 -247.628 1534.73 -31.2412 1269.23C185.146 1003.72 14.4177 1750.15 330.821 1315.11C390.18 1432.94 580.473 1100.12 747.402 1083.3C1052.98 1052.51 1361.75 1260.46 1221.81 1432.16C1078.39 1608.13 98.433 2239.14 -69.5863 1905.62Z" fill="url(#paint3_radial_31_201)"/>
<path d="M1221.58 1431.72C1185.78 1475.65 1097.69 1548.05 983.022 1626.74C868.371 1705.42 727.195 1790.36 585.252 1859.39C443.306 1928.41 300.611 1981.5 182.914 1996.5C124.066 2004 71.4839 2001.97 28.3771 1987.67C-14.73 1973.37 -48.3331 1946.79 -69.2701 1905.23C-111.278 1821.85 -143.395 1757 -164.569 1702.48C-185.744 1647.96 -195.942 1603.83 -194.179 1561.9C-192.417 1519.98 -178.701 1480.13 -151.87 1434.14C-125.033 1388.13 -85.1144 1336.05 -31.0159 1269.67C-3.9878 1236.51 16.9504 1219.21 33.5173 1213.39C50.0556 1207.58 62.2544 1213.21 71.8541 1226.02C81.4754 1238.86 88.5013 1258.93 94.621 1282.04C100.745 1305.17 105.926 1331.18 111.918 1355.99C117.9 1380.76 124.676 1404.26 133.96 1422.16C143.252 1440.06 155.068 1452.38 171.122 1454.72C187.165 1457.06 207.381 1449.44 233.456 1427.66C259.463 1405.94 291.33 1370.12 330.746 1315.97C338.186 1330.5 347.65 1338.12 358.832 1340.26C370.123 1342.41 383.143 1338.98 397.571 1331.52C426.42 1316.6 461.031 1285.47 498.951 1250.19C536.888 1214.9 578.16 1175.42 620.379 1143.71C662.599 1112 705.735 1088.09 747.391 1083.89C900.122 1068.5 1053.65 1112.78 1151.48 1182.34C1200.41 1217.13 1235.35 1258.19 1249.34 1301.19C1256.33 1322.67 1258.08 1344.61 1253.76 1366.49C1249.51 1388.05 1239.35 1409.63 1222.39 1430.71L1221.58 1431.72Z" stroke="#1C2D43"/>
</g>
<g filter="url(#filter2_f_31_201)">
<path d="M940.536 1.65813C1219.55 144.409 1328.57 489.153 1184.03 771.666C1039.49 1054.18 866.934 1417.49 587.918 1274.74C308.903 1131.99 -313.667 970.326 -169.127 687.813C-124.041 599.688 62.601 410.906 276.654 250.616C517.408 70.3319 792.838 -73.9075 940.536 1.65813Z" fill="url(#paint4_radial_31_201)"/>
<path d="M-168.682 688.041C-146.179 644.056 -88.2985 574.878 -9.24711 496.632C69.7891 418.401 169.945 331.148 276.953 251.016C397.313 160.887 526.323 79.7818 643.684 30.6542C761.081 -18.4882 866.672 -35.5704 940.308 2.10309C1219.07 144.725 1328 489.166 1183.58 771.439C1111.3 912.721 1032.06 1074.11 936.027 1182.34C888.017 1236.46 835.845 1277.24 778.292 1295.61C720.758 1313.96 657.795 1309.92 588.147 1274.29C518.37 1238.59 427.119 1201.71 331.786 1162.07C236.441 1122.43 137.001 1080.02 50.8011 1033.25C-35.4099 986.468 -108.32 935.356 -150.652 878.333C-171.813 849.828 -185.321 819.861 -189.044 788.231C-192.708 757.099 -186.897 724.318 -169.518 689.69L-168.682 688.041Z" stroke="#1C2D43"/>
</g>
<g filter="url(#filter3_f_31_201)">
<path d="M1723.79 1894.21C1806.19 2196.6 1624.78 2509.37 1318.6 2592.8C1012.42 2676.22 627.656 2793.36 545.259 2490.98C462.862 2188.59 163.059 1619.51 469.238 1536.08C564.744 1510.06 829.992 1520.88 1092.64 1571.15C1388.05 1627.69 1680.17 1734.14 1723.79 1894.21Z" fill="url(#paint5_radial_31_201)"/>
<path d="M469.369 1536.57C517.037 1523.58 607.155 1519.77 718.235 1525.51C829.293 1531.24 961.245 1546.51 1092.55 1571.64C1240.23 1599.91 1387.07 1640.64 1502.43 1694.31C1617.82 1747.99 1701.56 1814.54 1723.31 1894.34C1805.63 2196.46 1624.39 2508.95 1318.47 2592.31C1165.35 2634.04 992.689 2684.15 848.005 2686.07C775.671 2687.02 710.383 2675.93 658.049 2645.75C605.731 2615.59 566.31 2566.33 545.742 2490.84C525.136 2415.22 490.939 2322.93 456.034 2225.77C421.124 2128.59 385.501 2026.52 362.018 1931.3C338.533 1836.07 327.21 1747.75 340.85 1678.06C347.669 1643.22 360.722 1613.05 381.595 1588.99C402.14 1565.32 430.285 1547.54 467.586 1537.06L469.369 1536.57Z" stroke="#1C2D43"/>
</g>
</g>
<g opacity="0.2">
<g filter="url(#filter4_f_31_201)">
<path d="M1057.7 398.602C1292.12 586.814 1383.72 1041.35 1262.28 1413.83C1140.84 1786.32 1093.17 1363.85 858.746 1175.64C624.32 987.424 3.93224 1675.76 125.373 1303.28C163.254 1187.09 320.068 938.182 499.913 726.846C702.191 489.147 933.604 298.972 1057.7 398.602Z" fill="url(#paint6_radial_31_201)"/>
<path d="M125.763 1303.59C144.682 1245.56 193.329 1154.33 259.746 1051.16C326.156 948.01 410.311 832.963 500.222 727.308C601.352 608.469 709.751 501.526 808.365 436.747C857.673 404.358 904.519 382.52 946.773 374.997C989.031 367.473 1026.65 374.275 1057.54 399.078C1174.61 493.066 1256.04 653.573 1293.03 837.157C1330.03 1020.74 1322.57 1227.37 1261.89 1413.52C1246.71 1460.07 1232.7 1494.17 1219.33 1517.86C1205.97 1541.56 1193.28 1554.79 1180.77 1559.67C1168.28 1564.54 1155.94 1561.1 1143.19 1551.3C1130.42 1541.48 1117.25 1525.29 1103.16 1504.66C1089.08 1484.03 1074.1 1459.03 1057.73 1431.63C1041.35 1404.23 1023.58 1374.45 1003.91 1344.31C964.555 1284.03 917.577 1222.27 858.901 1175.16C829.492 1151.55 794.066 1141.71 754.861 1141.79C715.654 1141.87 672.63 1151.88 627.999 1168C538.739 1200.26 442.984 1257.03 358.378 1308.03C316.07 1333.53 276.552 1357.59 242.017 1376.42C207.476 1395.25 177.949 1408.85 155.621 1413.44C144.453 1415.74 135.128 1415.78 127.897 1413.14C120.692 1410.5 115.598 1405.23 112.779 1396.87C109.939 1388.45 109.369 1376.79 111.434 1361.37C113.433 1346.43 117.888 1328.04 125.061 1305.76L125.763 1303.59Z" stroke="#1C2D43"/>
</g>
<g filter="url(#filter5_f_31_201)">
<path d="M-234.682 2081.58C-397.433 1756.74 -407.142 1720.33 -197.539 1461.73C12.0643 1203.13 -153.311 1930.15 153.172 1506.42C210.67 1621.19 394.997 1297.02 556.692 1280.64C852.686 1250.65 1151.78 1453.19 1016.22 1620.43C877.305 1791.83 -71.9302 2406.43 -234.682 2081.58Z" fill="url(#paint7_radial_31_201)"/>
<path d="M1016 1619.99C981.32 1662.77 895.995 1733.29 784.921 1809.94C673.865 1886.58 537.116 1969.31 399.624 2036.54C262.128 2103.77 123.908 2155.48 9.90301 2170.09C-47.0997 2177.39 -98.0319 2175.42 -139.786 2161.49C-181.54 2147.55 -214.088 2121.67 -234.367 2081.2C-275.058 1999.98 -306.167 1936.82 -326.677 1883.72C-347.188 1830.61 -357.065 1787.64 -355.357 1746.8C-353.651 1705.98 -340.367 1667.16 -314.378 1622.37C-288.384 1577.56 -249.717 1526.83 -197.315 1462.18C-171.134 1429.88 -150.854 1413.03 -134.809 1407.36C-118.793 1401.71 -106.98 1407.19 -97.6834 1419.67C-88.3653 1432.17 -81.5602 1451.71 -75.6324 1474.22C-69.7004 1496.75 -64.6818 1522.08 -58.8778 1546.25C-53.0837 1570.38 -46.5198 1593.27 -37.5255 1610.7C-28.5245 1628.14 -17.0765 1640.14 -1.52201 1642.42C14.0207 1644.71 33.6058 1637.28 58.8647 1616.07C84.0552 1594.91 114.92 1560.02 153.097 1507.28C160.303 1521.43 169.471 1528.85 180.303 1530.93C191.241 1533.03 203.855 1529.69 217.832 1522.42C245.778 1507.89 279.304 1477.57 316.035 1443.21C352.783 1408.83 392.76 1370.38 433.656 1339.49C474.551 1308.61 516.332 1285.32 556.68 1281.23C704.621 1266.24 853.33 1309.37 948.098 1377.12C995.493 1411 1029.33 1451 1042.88 1492.87C1049.65 1513.79 1051.35 1535.16 1047.17 1556.47C1043.05 1577.46 1033.21 1598.47 1016.79 1619.01L1016 1619.99Z" stroke="#1C2D43"/>
</g>
<g filter="url(#filter6_f_31_201)">
<path d="M746.996 226.283C1018.01 364.94 1123.9 699.799 983.504 974.212C843.108 1248.62 675.504 1601.51 404.49 1462.86C133.475 1324.2 -471.243 1167.17 -330.847 892.762C-287.054 807.165 -105.764 623.796 102.15 468.102C336.001 292.988 603.533 152.885 746.996 226.283Z" fill="url(#paint8_radial_31_201)"/>
<path d="M-330.402 892.99C-308.545 850.269 -252.327 783.076 -175.542 707.073C-98.7728 631.086 -1.48929 546.336 102.45 468.503C219.358 380.958 344.667 302.18 458.662 254.461C572.692 206.728 675.25 190.139 746.768 226.729C1017.53 365.258 1123.33 699.812 983.059 973.984C912.848 1111.22 835.88 1267.97 742.605 1373.1C695.973 1425.66 645.299 1465.28 589.4 1483.11C533.519 1500.94 472.365 1497.02 404.717 1462.41C336.941 1427.73 248.306 1391.91 155.708 1353.41C63.0965 1314.9 -33.4914 1273.71 -117.219 1228.28C-200.958 1182.84 -271.774 1133.2 -312.89 1077.81C-333.443 1050.12 -346.563 1021.02 -350.178 990.299C-353.737 960.063 -348.094 928.226 -331.215 894.593L-330.402 892.99Z" stroke="#1C2D43"/>
</g>
<g filter="url(#filter7_f_31_201)">
<path d="M1502.07 2072.88C1582.1 2366.59 1405.9 2670.39 1108.5 2751.43C811.099 2832.47 437.367 2946.25 357.333 2652.53C277.298 2358.81 -13.9078 1806.06 283.491 1725.02C376.258 1699.74 633.901 1710.25 889.018 1759.08C1175.96 1814 1459.7 1917.4 1502.07 2072.88Z" fill="url(#paint9_radial_31_201)"/>
<path d="M283.622 1725.5C329.922 1712.89 417.453 1709.19 525.348 1714.76C633.221 1720.33 761.388 1735.16 888.924 1759.57C1032.37 1787.03 1175 1826.6 1287.05 1878.72C1399.13 1930.86 1480.47 1995.5 1501.59 2073.01C1581.55 2366.45 1405.5 2669.98 1108.37 2750.95C959.639 2791.47 791.93 2840.15 651.397 2842.01C581.138 2842.94 517.725 2832.16 466.894 2802.86C416.081 2773.56 377.792 2725.71 357.815 2652.4C337.799 2578.94 304.584 2489.3 270.679 2394.92C236.77 2300.53 202.169 2201.39 179.36 2108.9C156.549 2016.4 145.551 1930.62 158.8 1862.92C165.423 1829.08 178.1 1799.78 198.373 1776.42C218.327 1753.43 245.661 1736.16 281.89 1725.98L283.622 1725.5Z" stroke="#1C2D43"/>
</g>
</g>
</g>
<defs>
<filter id="filter0_f_31_201" x="186.022" y="49.9314" width="1445.21" height="1422.69" filterUnits="userSpaceOnUse" color-interpolation-filters="sRGB">
<feFlood flood-opacity="0" result="BackgroundImageFix"/>
<feBlend mode="normal" in="SourceGraphic" in2="BackgroundImageFix" result="shape"/>
<feGaussianBlur stdDeviation="50" result="effect1_foregroundBlur_31_201"/>
</filter>
<filter id="filter1_f_31_201" x="-294.762" y="980.245" width="1651.26" height="1121.12" filterUnits="userSpaceOnUse" color-interpolation-filters="sRGB">
<feFlood flood-opacity="0" result="BackgroundImageFix"/>
<feBlend mode="normal" in="SourceGraphic" in2="BackgroundImageFix" result="shape"/>
<feGaussianBlur stdDeviation="50" result="effect1_foregroundBlur_31_201"/>
</filter>
<filter id="filter2_f_31_201" x="-290.592" y="-118.877" width="1638.5" height="1525.7" filterUnits="userSpaceOnUse" color-interpolation-filters="sRGB">
<feFlood flood-opacity="0" result="BackgroundImageFix"/>
<feBlend mode="normal" in="SourceGraphic" in2="BackgroundImageFix" result="shape"/>
<feGaussianBlur stdDeviation="50" result="effect1_foregroundBlur_31_201"/>
</filter>
<filter id="filter3_f_31_201" x="234.468" y="1422.41" width="1609.19" height="1364.21" filterUnits="userSpaceOnUse" color-interpolation-filters="sRGB">
<feFlood flood-opacity="0" result="BackgroundImageFix"/>
<feBlend mode="normal" in="SourceGraphic" in2="BackgroundImageFix" result="shape"/>
<feGaussianBlur stdDeviation="50" result="effect1_foregroundBlur_31_201"/>
</filter>
<filter id="filter4_f_31_201" x="9.77808" y="271.528" width="1406.17" height="1390.91" filterUnits="userSpaceOnUse" color-interpolation-filters="sRGB">
<feFlood flood-opacity="0" result="BackgroundImageFix"/>
<feBlend mode="normal" in="SourceGraphic" in2="BackgroundImageFix" result="shape"/>
<feGaussianBlur stdDeviation="50" result="effect1_foregroundBlur_31_201"/>
</filter>
<filter id="filter5_f_31_201" x="-455.933" y="1177.66" width="1605.76" height="1097.18" filterUnits="userSpaceOnUse" color-interpolation-filters="sRGB">
<feFlood flood-opacity="0" result="BackgroundImageFix"/>
<feBlend mode="normal" in="SourceGraphic" in2="BackgroundImageFix" result="shape"/>
<feGaussianBlur stdDeviation="50" result="effect1_foregroundBlur_31_201"/>
</filter>
<filter id="filter6_f_31_201" x="-451.697" y="106.337" width="1597.25" height="1487.69" filterUnits="userSpaceOnUse" color-interpolation-filters="sRGB">
<feFlood flood-opacity="0" result="BackgroundImageFix"/>
<feBlend mode="normal" in="SourceGraphic" in2="BackgroundImageFix" result="shape"/>
<feGaussianBlur stdDeviation="50" result="effect1_foregroundBlur_31_201"/>
</filter>
<filter id="filter7_f_31_201" x="52.5853" y="1611.74" width="1568.78" height="1330.83" filterUnits="userSpaceOnUse" color-interpolation-filters="sRGB">
<feFlood flood-opacity="0" result="BackgroundImageFix"/>
<feBlend mode="normal" in="SourceGraphic" in2="BackgroundImageFix" result="shape"/>
<feGaussianBlur stdDeviation="50" result="effect1_foregroundBlur_31_201"/>
</filter>
<radialGradient id="paint0_radial_31_201" cx="0" cy="0" r="1" gradientTransform="matrix(679.5 -1108.21 607.557 2166.83 754 1372.29)" gradientUnits="userSpaceOnUse">
<stop offset="0.0591302" stop-color="#F7F9FA"/>
<stop offset="0.456607" stop-color="#E4E9EC"/>
<stop offset="1" stop-color="#B3BDC3"/>
</radialGradient>
<radialGradient id="paint1_radial_31_201" cx="0" cy="0" r="1" gradientTransform="matrix(679.5 -1131.2 607.557 2211.8 753 1423.77)" gradientUnits="userSpaceOnUse">
<stop offset="0.0591302" stop-color="#F7F9FA"/>
<stop offset="0.456607" stop-color="#E4E9EC"/>
<stop offset="1" stop-color="#B3BDC3"/>
</radialGradient>
<radialGradient id="paint2_radial_31_201" cx="0" cy="0" r="1" gradientTransform="matrix(438.204 349.882 -227.005 692.44 1037.62 870.169)" gradientUnits="userSpaceOnUse">
<stop stop-color="#0FB483"/>
<stop offset="0.5" stop-color="#0E9A58"/>
</radialGradient>
<radialGradient id="paint3_radial_31_201" cx="0" cy="0" r="1" gradientTransform="matrix(-304.226 -603.885 391.804 -480.731 322.217 1424.89)" gradientUnits="userSpaceOnUse">
<stop stop-color="#0FB483"/>
<stop offset="0.5" stop-color="#0E9A58"/>
</radialGradient>
<radialGradient id="paint4_radial_31_201" cx="0" cy="0" r="1" gradientUnits="userSpaceOnUse" gradientTransform="translate(678.823 513.194) rotate(28.2121) scale(1168.73 1183.38)">
<stop stop-color="#00F0FF"/>
<stop offset="0.5" stop-color="#0876AB"/>
</radialGradient>
<radialGradient id="paint5_radial_31_201" cx="0" cy="0" r="1" gradientUnits="userSpaceOnUse" gradientTransform="translate(1169.41 2045.27) rotate(75.8745) scale(1168.73 1183.38)">
<stop stop-color="#00F0FF"/>
<stop offset="0.5" stop-color="#0876AB"/>
</radialGradient>
<radialGradient id="paint6_radial_31_201" cx="0" cy="0" r="1" gradientTransform="matrix(424.466 340.788 -219.888 674.443 837.811 1073.05)" gradientUnits="userSpaceOnUse">
<stop stop-color="#0FB483"/>
<stop offset="0.5" stop-color="#0E9A58"/>
</radialGradient>
<radialGradient id="paint7_radial_31_201" cx="0" cy="0" r="1" gradientTransform="matrix(-294.688 -588.189 379.52 -468.237 144.838 1613.35)" gradientUnits="userSpaceOnUse">
<stop stop-color="#0FB483"/>
<stop offset="0.5" stop-color="#0E9A58"/>
</radialGradient>
<radialGradient id="paint8_radial_31_201" cx="0" cy="0" r="1" gradientUnits="userSpaceOnUse" gradientTransform="translate(492.788 723.151) rotate(28.2121) scale(1135.22 1149.45)">
<stop stop-color="#00F0FF"/>
<stop offset="0.5" stop-color="#0876AB"/>
</radialGradient>
<radialGradient id="paint9_radial_31_201" cx="0" cy="0" r="1" gradientUnits="userSpaceOnUse" gradientTransform="translate(963.583 2219.61) rotate(75.8745) scale(1135.22 1149.45)">
<stop stop-color="#00F0FF"/>
<stop offset="0.5" stop-color="#0876AB"/>
</radialGradient>
</defs>
</svg>
