<svg width="208" height="44" viewBox="0 0 208 44" fill="none" xmlns="http://www.w3.org/2000/svg">
<path d="M20.88 26.4L21.216 22.8C21.36 21.36 20.448 20.4 19.008 20.4H4.07999C2.63999 20.4 1.72799 19.44 1.87199 18L3.02399 4.94401C3.16799 3.312 4.60799 2.448 6.04799 2.448H28.8C30.24 2.448 31.104 3.40801 30.96 4.896C30.816 6.33601 29.808 7.248 28.368 7.248H13.872C12.432 7.248 11.424 8.208 11.28 9.64801L10.992 12.816C10.8 14.688 11.472 15.6 12.912 15.6H28.08C29.52 15.6 30.432 16.56 30.288 18L29.136 31.2C28.992 32.64 28.368 33.6 26.928 33.6H2.73599C1.29599 33.6 -8.29622e-06 32.64 0.143992 31.152C0.287992 29.712 0.863992 28.8 2.30399 28.8H18.672C20.112 28.8 20.736 27.888 20.88 26.4ZM42.0225 16.992H44.4225C45.7665 16.992 46.9185 16.464 47.0145 15.024L47.2545 11.952C47.3505 10.512 48.4065 9.60001 49.8945 9.60001H53.7345C55.1745 9.60001 56.0385 10.512 55.8945 11.952L55.3665 17.904C55.2705 18.912 54.7905 19.44 53.9745 19.68H56.6625C58.1025 19.68 59.0145 20.64 58.8705 22.08L58.0545 31.2C57.9105 32.64 56.9025 33.6 55.4625 33.6H51.6225C50.1825 33.6 49.2705 32.64 49.4145 31.2L50.0385 24.192C50.1825 22.752 49.2705 21.792 47.8305 21.792H41.5425C40.1025 21.792 39.0945 22.752 38.9505 24.192L38.3265 31.2C38.1825 32.64 37.1745 33.6 35.7345 33.6H31.8945C30.4545 33.6 29.5425 32.64 29.6865 31.2L32.2305 2.4C32.3745 0.960006 33.3825 3.8147e-06 34.8225 3.8147e-06H38.6625C40.1025 3.8147e-06 41.0145 0.960006 40.8705 2.4L39.8145 14.592C39.6705 16.032 40.5825 16.992 42.0225 16.992ZM61.476 5.808L61.524 4.8C61.572 3.36 62.724 2.4 64.164 2.4H68.004C69.444 2.4 70.212 3.36 70.164 4.8L70.116 5.808C70.068 7.248 68.916 8.208 67.476 8.208H63.636C62.196 8.208 61.428 7.248 61.476 5.808ZM59.124 31.2L60.852 12C60.996 10.56 62.004 9.60001 63.444 9.60001H67.284C68.724 9.60001 69.636 10.56 69.492 12L67.764 31.2C67.62 32.64 66.612 33.6 65.172 33.6H61.332C59.892 33.6 58.98 32.64 59.124 31.2ZM68.9209 31.2L71.4649 2.4C71.6089 0.960006 72.6169 3.8147e-06 74.0569 3.8147e-06H77.8969C79.3369 3.8147e-06 80.2489 0.960006 80.1049 2.4L77.5609 31.2C77.4169 32.64 76.4089 33.6 74.9689 33.6H71.1289C69.6889 33.6 68.7769 32.64 68.9209 31.2ZM78.624 31.2L81.168 2.4C81.312 0.960006 82.32 3.8147e-06 83.76 3.8147e-06H87.6C89.04 3.8147e-06 89.952 0.960006 89.808 2.4L87.264 31.2C87.12 32.64 86.112 33.6 84.672 33.6H80.832C79.392 33.6 78.48 32.64 78.624 31.2ZM99.2711 4.8L97.3511 26.4C97.2071 27.84 98.1191 28.8 99.5591 28.8H112.951C114.391 28.8 115.303 29.712 115.159 31.152C115.015 32.64 113.959 33.6 112.519 33.6H90.5351C89.0951 33.6 88.1831 32.64 88.3271 31.2L90.6311 4.8C90.7751 3.36 91.7831 2.4 93.2231 2.4H97.0631C98.5031 2.4 99.4151 3.36 99.2711 4.8ZM115.702 31.2L117.43 12C117.574 10.56 118.582 9.60001 120.022 9.60001H144.55C145.99 9.60001 146.902 10.56 146.758 12L145.03 31.2C144.886 32.64 143.878 33.6 142.438 33.6H117.91C116.47 33.6 115.558 32.64 115.702 31.2ZM126.982 28.8H134.23C135.67 28.8 136.678 27.84 136.822 26.4L137.686 16.8C137.83 15.36 136.918 14.4 135.478 14.4H128.23C126.79 14.4 125.782 15.36 125.638 16.8L124.774 26.4C124.63 27.84 125.542 28.8 126.982 28.8ZM146.077 31.2L147.805 12C147.949 10.56 148.957 9.60001 150.397 9.60001H174.925C176.365 9.60001 177.277 10.56 177.133 12L175.405 31.2C175.261 32.64 174.253 33.6 172.813 33.6H148.285C146.845 33.6 145.933 32.64 146.077 31.2ZM157.357 28.8H164.605C166.045 28.8 167.053 27.84 167.197 26.4L168.061 16.8C168.205 15.36 167.293 14.4 165.853 14.4H158.605C157.165 14.4 156.157 15.36 156.013 16.8L155.149 26.4C155.005 27.84 155.917 28.8 157.357 28.8ZM184.66 36L184.228 40.8C184.084 42.24 183.076 43.2 181.636 43.2H177.796C176.356 43.2 175.444 42.24 175.588 40.8L178.132 12C178.276 10.56 179.284 9.60001 180.724 9.60001H205.252C206.692 9.60001 207.604 10.56 207.46 12L205.732 31.2C205.588 32.64 204.58 33.6 203.14 33.6H187.252C185.812 33.6 184.804 34.56 184.66 36ZM187.684 28.8H194.932C196.372 28.8 197.38 27.84 197.524 26.4L198.388 16.8C198.532 15.36 197.62 14.4 196.18 14.4H188.932C187.492 14.4 186.484 15.36 186.34 16.8L185.476 26.4C185.332 27.84 186.244 28.8 187.684 28.8Z" fill="#E6F1FF"/>
</svg>
